<svg xmlns="http://www.w3.org/2000/svg" viewBox="0 0 512 512">
  <defs>
    <linearGradient id="bg" x1="0" y1="0" x2="0" y2="1">
      <stop offset="0" stop-color="#23466E"/>
      <stop offset="1" stop-color="#13263F"/>
    </linearGradient>
  </defs>
  <rect width="512" height="512" rx="112" fill="url(#bg)"/>
  <rect x="112" y="76" width="200" height="360" rx="44" fill="#F4F6F9"/>
  <g fill="#23466E" opacity="0.55">
    <circle cx="164" cy="140" r="11"/><circle cx="200" cy="140" r="11"/><circle cx="236" cy="140" r="11"/><circle cx="272" cy="140" r="11"/>
    <circle cx="164" cy="176" r="11"/><circle cx="200" cy="176" r="11"/><circle cx="236" cy="176" r="11"/><circle cx="272" cy="176" r="11"/>
    <circle cx="164" cy="212" r="11"/><circle cx="200" cy="212" r="11"/><circle cx="236" cy="212" r="11"/><circle cx="272" cy="212" r="11"/>
  </g>
  <circle cx="212" cy="340" r="58" fill="#F5A623"/>
  <path d="M212 306c-17 0-29 13-29 30v17l-9 11v5h76v-5l-9-11v-17c0-17-12-30-29-30z" fill="#FFFFFF"/>
  <path d="M201 374a11 11 0 0 0 22 0z" fill="#FFFFFF"/>
  <g fill="none" stroke="#F5A623" stroke-width="22" stroke-linecap="round">
    <path d="M352 196a84 84 0 0 1 0 120"/>
    <path d="M394 158a140 140 0 0 1 0 196"/>
  </g>
</svg>
